<svg xmlns="http://www.w3.org/2000/svg" viewBox="0 0 64 64" width="64" height="64">
  <path d="M51,48H13c-6.6,0-12-5.4-12-12c0-5.3,3.5-9.9,8.6-11.5C11.6,17,18.5,11,26.5,11c7.1,0,13.2,4.7,15.4,11.3
	c2-1.4,4.5-2.3,7.1-2.3c6.6,0,12,5.4,12,12C61,42.6,56.6,48,51,48z" fill="#4FC3F7"/>

  <g>
    <polyline points="16,23 23,30 16,37" fill="none" stroke="#01579B" stroke-width="5" stroke-linecap="round" stroke-linejoin="round"/>
    <line x1="27" y1="37" x2="35" y2="37" fill="none" stroke="#01579B" stroke-width="5" stroke-linecap="round"/>

    <path d="M52,38 V25 L45,19 L38,25 V38 H52 Z" fill="#F44336"/>
  </g>

</svg>